<svg width="20" height="15" viewBox="0 0 1 2 1" fill="none" xmlns="http://www.w3.org/2000/svg">
  <path d="M0 1h1v1h-1v1h-1v-1h-1v-1h1V1zm0 0h.5v.5h.5v.5H.5V.5zm0 .5h1v1h-1v1H.5v-1h1v1zm0 .5h.5v.5h.5v.5H1v-5h1v.5h-.5v.5H.5V.5z" fill="#FF0000"/>
  <path d="M.5.5h1v1h-1v1H.5v-1h1v1zm0 .5h.5v.5h.5v.5H.5V.5zm0 .5h.5v.5h.5v.5H1v.5h.5v-.5v.5H.5V.5z" fill="#FF0000"/>
  <path d="M.5.5h1v1h-1v1H.5v-1h1v1zm0 .5h.5v.5h.5v.5H1v.5h.5v-.5v.5H.5V.5z" fill="#FF0000"/>
  <rect y="12" width="2" height="3" fill="#FF0000" />
  <path d="M0 0h2v15H0V0z" fill="#FF0000"/>
</svg>
